<svg width="328" height="192" viewBox="0 0 328 192" fill="none" xmlns="http://www.w3.org/2000/svg">
<g clip-path="url(#clip0_218_1971)">
<rect width="328" height="192" rx="15" fill="white"/>
<rect width="328" height="192" rx="15" fill="url(#paint0_linear_218_1971)"/>
<path d="M66.5 43.5C38.5 37.5 10.5 54 0 63V0H148C132.5 17 94.5 49.5 66.5 43.5Z" fill="url(#paint1_linear_218_1971)"/>
<path d="M114 101.87C47.6 94.2704 3.5 116.037 -5.5 127.87L-15 165.37C7 144.315 61.8 112.238 67 152.37C73.5 202.535 149.5 182.87 153.5 165.37C157.5 147.87 246.5 185.37 232.5 127.87C218.5 70.3704 342 125.37 342 119.37V71.3704C332.167 54.3704 295.8 23.1704 229 34.3704C145.5 48.3704 197 111.37 114 101.87Z" fill="url(#paint2_linear_218_1971)"/>
<path d="M25.2965 26.925H23.925C23.8722 26.6319 23.774 26.374 23.6304 26.1513C23.4868 25.9286 23.311 25.7395 23.1029 25.5842C22.8949 25.4289 22.6619 25.3117 22.404 25.2326C22.149 25.1534 21.878 25.1139 21.5908 25.1139C21.0721 25.1139 20.6076 25.2443 20.1973 25.5051C19.7899 25.7659 19.4676 26.1484 19.2302 26.6524C18.9958 27.1565 18.8785 27.7719 18.8785 28.4987C18.8785 29.2313 18.9958 29.8497 19.2302 30.3537C19.4676 30.8578 19.7914 31.2387 20.2017 31.4966C20.612 31.7545 21.0735 31.8835 21.5864 31.8835C21.8706 31.8835 22.1402 31.8454 22.3952 31.7692C22.6531 31.69 22.8861 31.5743 23.0941 31.4219C23.3022 31.2695 23.478 31.0834 23.6216 30.8636C23.7682 30.6409 23.8693 30.3859 23.925 30.0987L25.2965 30.1031C25.2232 30.5457 25.0811 30.953 24.8701 31.3252C24.662 31.6944 24.3938 32.0139 24.0656 32.2835C23.7403 32.5502 23.3681 32.7568 22.9491 32.9033C22.53 33.0498 22.0728 33.1231 21.5776 33.1231C20.7981 33.1231 20.1035 32.9385 19.494 32.5692C18.8844 32.197 18.4038 31.6651 18.0521 30.9735C17.7034 30.2819 17.529 29.457 17.529 28.4987C17.529 27.5374 17.7048 26.7125 18.0565 26.0238C18.4082 25.3322 18.8888 24.8018 19.4983 24.4325C20.1079 24.0603 20.801 23.8742 21.5776 23.8742C22.0553 23.8742 22.5007 23.9431 22.9139 24.0809C23.3301 24.2157 23.7037 24.4149 24.0349 24.6787C24.366 24.9395 24.64 25.2589 24.8569 25.637C25.0737 26.0121 25.2203 26.4414 25.2965 26.925ZM26.8163 33V26.248H28.0867V27.3206H28.157C28.2801 26.9572 28.497 26.6715 28.8076 26.4634C29.1212 26.2524 29.4758 26.1469 29.8714 26.1469C29.9535 26.1469 30.0502 26.1498 30.1615 26.1557C30.2758 26.1615 30.3652 26.1689 30.4297 26.1777V27.4349C30.3769 27.4202 30.2832 27.4041 30.1484 27.3865C30.0136 27.366 29.8787 27.3557 29.7439 27.3557C29.4333 27.3557 29.1564 27.4217 28.9131 27.5536C28.6728 27.6825 28.4823 27.8627 28.3417 28.0942C28.201 28.3228 28.1307 28.5837 28.1307 28.8767V33H26.8163ZM34.2354 33.1363C33.5701 33.1363 32.9972 32.9941 32.5166 32.7099C32.0389 32.4227 31.6697 32.0197 31.4089 31.501C31.151 30.9794 31.022 30.3684 31.022 29.668C31.022 28.9763 31.151 28.3668 31.4089 27.8393C31.6697 27.3118 32.0331 26.9 32.499 26.6041C32.9679 26.3081 33.5159 26.1601 34.1431 26.1601C34.524 26.1601 34.8933 26.2231 35.2508 26.3491C35.6083 26.4751 35.9292 26.6729 36.2135 26.9425C36.4978 27.2122 36.722 27.5624 36.8861 27.9931C37.0502 28.421 37.1322 28.9412 37.1322 29.5537V30.0196H31.7649V29.035H35.8443C35.8443 28.6892 35.7739 28.3829 35.6333 28.1162C35.4926 27.8466 35.2948 27.6342 35.0398 27.4788C34.7878 27.3235 34.4918 27.2459 34.1519 27.2459C33.7826 27.2459 33.4603 27.3367 33.1848 27.5184C32.9122 27.6972 32.7012 27.9316 32.5518 28.2217C32.4053 28.5089 32.332 28.821 32.332 29.158V29.9273C32.332 30.3786 32.4111 30.7625 32.5694 31.079C32.7305 31.3955 32.9547 31.6373 33.2419 31.8043C33.5291 31.9684 33.8647 32.0505 34.2486 32.0505C34.4977 32.0505 34.7248 32.0153 34.9299 31.945C35.1351 31.8717 35.3124 31.7633 35.4618 31.6197C35.6113 31.4761 35.7256 31.2988 35.8047 31.0878L37.0487 31.312C36.9491 31.6783 36.7703 31.9992 36.5124 32.2747C36.2575 32.5472 35.9366 32.7597 35.5497 32.9121C35.1658 33.0615 34.7277 33.1363 34.2354 33.1363ZM41.1182 33.1319C40.5731 33.1319 40.0866 32.9927 39.6587 32.7143C39.2338 32.4329 38.8997 32.0329 38.6565 31.5142C38.4162 30.9926 38.296 30.3669 38.296 29.6372C38.296 28.9075 38.4177 28.2833 38.6609 27.7646C38.9071 27.2459 39.2441 26.8488 39.6719 26.5733C40.0998 26.2978 40.5848 26.1601 41.127 26.1601C41.546 26.1601 41.883 26.2304 42.138 26.3711C42.3959 26.5088 42.5952 26.67 42.7358 26.8546C42.8794 27.0392 42.9908 27.2019 43.0699 27.3426H43.149V23.9973H44.4634V33H43.1798V31.9494H43.0699C42.9908 32.093 42.8765 32.2571 42.727 32.4417C42.5805 32.6264 42.3783 32.7875 42.1204 32.9253C41.8625 33.063 41.5284 33.1319 41.1182 33.1319ZM41.4083 32.0109C41.7863 32.0109 42.1058 31.9113 42.3666 31.712C42.6303 31.5098 42.8296 31.2299 42.9644 30.8724C43.1021 30.5149 43.171 30.0987 43.171 29.624C43.171 29.1551 43.1036 28.7448 42.9688 28.3932C42.834 28.0415 42.6362 27.7675 42.3754 27.5711C42.1145 27.3748 41.7922 27.2766 41.4083 27.2766C41.0127 27.2766 40.683 27.3792 40.4192 27.5843C40.1555 27.7895 39.9562 28.0693 39.8214 28.4239C39.6895 28.7785 39.6236 29.1786 39.6236 29.624C39.6236 30.0753 39.691 30.4812 39.8258 30.8416C39.9606 31.2021 40.1599 31.4878 40.4236 31.6988C40.6903 31.9069 41.0185 32.0109 41.4083 32.0109ZM46.3393 33V26.248H47.6537V33H46.3393ZM47.0031 25.2062C46.7745 25.2062 46.5782 25.13 46.414 24.9776C46.2529 24.8223 46.1723 24.6377 46.1723 24.4237C46.1723 24.2069 46.2529 24.0222 46.414 23.8699C46.5782 23.7145 46.7745 23.6369 47.0031 23.6369C47.2317 23.6369 47.4265 23.7145 47.5877 23.8699C47.7518 24.0222 47.8339 24.2069 47.8339 24.4237C47.8339 24.6377 47.7518 24.8223 47.5877 24.9776C47.4265 25.13 47.2317 25.2062 47.0031 25.2062ZM52.5737 26.248V27.303H48.8856V26.248H52.5737ZM49.8747 24.6303H51.189V31.0175C51.189 31.2724 51.2271 31.4644 51.3033 31.5933C51.3795 31.7193 51.4777 31.8058 51.5978 31.8527C51.7209 31.8966 51.8543 31.9186 51.9978 31.9186C52.1033 31.9186 52.1957 31.9113 52.2748 31.8966C52.3539 31.882 52.4155 31.8703 52.4594 31.8615L52.6968 32.9472C52.6206 32.9766 52.5122 33.0059 52.3715 33.0352C52.2308 33.0674 52.055 33.085 51.844 33.0879C51.4982 33.0938 51.1758 33.0322 50.8769 32.9033C50.578 32.7743 50.3362 32.5751 50.1516 32.3055C49.967 32.0358 49.8747 31.6974 49.8747 31.29V24.6303Z" fill="black"/>
<path d="M299.385 40.3474H289.907V23.3154H299.385V40.3474Z" fill="#FF5F00"/>
<path d="M290.509 31.8313C290.509 28.3762 292.127 25.2992 294.646 23.3161C292.739 21.812 290.381 20.9971 287.954 21C281.971 21 277.122 25.8498 277.122 31.8313C277.122 37.8129 281.971 42.6627 287.952 42.6627C290.381 42.6656 292.739 41.8507 294.645 40.3466C292.127 38.3634 290.509 35.2865 290.509 31.8313Z" fill="#EB001B"/>
<path d="M312.17 31.8313C312.17 37.8129 307.322 42.6627 301.34 42.6627C298.912 42.6656 296.553 41.8507 294.646 40.3466C297.165 38.3634 298.783 35.2865 298.783 31.8313C298.783 28.3762 297.165 25.2992 294.646 23.3161C296.553 21.812 298.912 20.9971 301.34 21C307.322 21 312.17 25.8498 312.17 31.8313Z" fill="#F79E1B"/>
</g>
<defs>
<linearGradient id="paint0_linear_218_1971" x1="164" y1="0" x2="164" y2="192" gradientUnits="userSpaceOnUse">
<stop stop-color="#9EC7CB"/>
<stop offset="1" stop-color="#FFC16E"/>
</linearGradient>
<linearGradient id="paint1_linear_218_1971" x1="74" y1="0" x2="34" y2="63" gradientUnits="userSpaceOnUse">
<stop stop-color="#FFC16E" stop-opacity="0.4"/>
<stop offset="1" stop-color="#9EC7CB"/>
</linearGradient>
<linearGradient id="paint2_linear_218_1971" x1="272" y1="57.3704" x2="-4.50001" y2="149" gradientUnits="userSpaceOnUse">
<stop stop-color="#9EC7CB" stop-opacity="0.7"/>
<stop offset="0.9999" stop-color="#FFC16E" stop-opacity="0.5"/>
<stop offset="1" stop-color="#F2C335" stop-opacity="0.7"/>
</linearGradient>
<clipPath id="clip0_218_1971">
<rect width="328" height="192" rx="15" fill="white"/>
</clipPath>
</defs>
</svg>
