<svg width="102" height="101" viewBox="0 0 102 101" fill="none" xmlns="http://www.w3.org/2000/svg">
<path d="M101.5 50.5C101.5 78.1096 78.895 100.5 51 100.5C23.105 100.5 0.5 78.1096 0.5 50.5C0.5 22.8904 23.105 0.5 51 0.5C78.895 0.5 101.5 22.8904 101.5 50.5Z" fill="#FFDA78" stroke="#003B95"/>
<g clip-path="url(#clip0_999_1212)">
<g filter="url(#filter0_d_999_1212)">
<path d="M77.25 42.5H24.75V80H77.25V42.5Z" fill="#003B95"/>
</g>
<path d="M51 65L46.6256 61.25L24.75 80H77.25L55.3744 61.25L51 65Z" fill="#003B95"/>
<path d="M51 20L24.75 42.5L51 65L77.25 42.5L51 20Z" fill="#17153C"/>
<path d="M30.375 47.3206L51 65L71.625 47.3206V23.75H30.375V47.3206Z" fill="#FDFFFF"/>
<path d="M56.625 40.625H45.375V38.75H56.625V40.625ZM56.625 42.5H45.375V44.375H56.625V42.5ZM56.625 46.25H45.375V48.125H56.625V46.25Z" fill="#17153C"/>
</g>
<defs>
<filter id="filter0_d_999_1212" x="20.75" y="42.5" width="60.5" height="45.5" filterUnits="userSpaceOnUse" color-interpolation-filters="sRGB">
<feFlood flood-opacity="0" result="BackgroundImageFix"/>
<feColorMatrix in="SourceAlpha" type="matrix" values="0 0 0 0 0 0 0 0 0 0 0 0 0 0 0 0 0 0 127 0" result="hardAlpha"/>
<feOffset dy="4"/>
<feGaussianBlur stdDeviation="2"/>
<feComposite in2="hardAlpha" operator="out"/>
<feColorMatrix type="matrix" values="0 0 0 0 0 0 0 0 0 0 0 0 0 0 0 0 0 0 0.25 0"/>
<feBlend mode="normal" in2="BackgroundImageFix" result="effect1_dropShadow_999_1212"/>
<feBlend mode="normal" in="SourceGraphic" in2="effect1_dropShadow_999_1212" result="shape"/>
</filter>
<clipPath id="clip0_999_1212">
<rect width="60" height="60" fill="white" transform="translate(21 20)"/>
</clipPath>
</defs>
</svg>
