<svg width="101" height="71" viewBox="0 0 101 71" fill="none" xmlns="http://www.w3.org/2000/svg">
<path d="M1.91472 17.6091C7.11472 -4.39088 49.4147 0.109114 69.9147 5.10911C80.0814 9.27578 100.415 22.2091 100.415 40.6091C100.415 63.6091 69.9147 68.1091 47.4147 69.6091C24.9147 71.1091 -4.58528 45.1091 1.91472 17.6091Z" fill="#FFDA78" stroke="#17153C"/>
<g clip-path="url(#clip0_519_1917)">
<g filter="url(#filter0_d_519_1917)">
<path d="M77.25 27.5H24.75V65H77.25V27.5Z" fill="#17153C"/>
</g>
<path d="M51 50L46.6256 46.25L24.75 65H77.25L55.3744 46.25L51 50Z" fill="#17153C"/>
<path d="M51 5L24.75 27.5L51 50L77.25 27.5L51 5Z" fill="#17153C"/>
<path d="M30.375 32.3206L51 50L71.625 32.3206V8.75H30.375V32.3206Z" fill="#FDFFFF"/>
<path d="M56.625 25.625H45.375V23.75H56.625V25.625ZM56.625 27.5H45.375V29.375H56.625V27.5ZM56.625 31.25H45.375V33.125H56.625V31.25Z" fill="#17153C"/>
</g>
<defs>
<filter id="filter0_d_519_1917" x="20.75" y="27.5" width="60.5" height="45.5" filterUnits="userSpaceOnUse" color-interpolation-filters="sRGB">
<feFlood flood-opacity="0" result="BackgroundImageFix"/>
<feColorMatrix in="SourceAlpha" type="matrix" values="0 0 0 0 0 0 0 0 0 0 0 0 0 0 0 0 0 0 127 0" result="hardAlpha"/>
<feOffset dy="4"/>
<feGaussianBlur stdDeviation="2"/>
<feComposite in2="hardAlpha" operator="out"/>
<feColorMatrix type="matrix" values="0 0 0 0 0 0 0 0 0 0 0 0 0 0 0 0 0 0 0.25 0"/>
<feBlend mode="normal" in2="BackgroundImageFix" result="effect1_dropShadow_519_1917"/>
<feBlend mode="normal" in="SourceGraphic" in2="effect1_dropShadow_519_1917" result="shape"/>
</filter>
<clipPath id="clip0_519_1917">
<rect width="60" height="60" fill="white" transform="translate(21 5)"/>
</clipPath>
</defs>
</svg>
