<svg width="116" height="97" viewBox="0 0 116 97" fill="none" xmlns="http://www.w3.org/2000/svg">
<path d="M6.1001 46.7914C4.10527 24.2734 45.6693 15.2197 66.7007 13.5075C77.6623 14.2595 101.034 20.1293 106.831 37.5926C114.076 59.4217 86.546 73.3002 65.6639 81.8114C44.7819 90.3227 8.59364 74.939 6.1001 46.7914Z" fill="#FFDA78" stroke="#17153C"/>
<g clip-path="url(#clip0_519_1807)">
<g filter="url(#filter0_d_519_1807)">
<path d="M51.2031 54.4375L44.875 73.75L60.3437 57.4375L67 59.5937C67.6093 59.7812 68.3125 59.5469 68.6406 58.9844L86.125 30.25L30.9062 45.1094C29.5468 45.4844 29.5 47.3594 30.8125 47.7812L40.375 50.9219L44.8281 73.75" fill="white"/>
</g>
<path d="M44.875 74.2188C44.7812 74.2188 44.6875 74.1719 44.5938 74.125C44.5469 74.125 44.5469 74.0781 44.5469 74.0781C44.5 74.0312 44.4531 73.9375 44.4062 73.8438L40 51.2969L30.7188 48.25C29.875 48.0156 29.4062 47.2656 29.4062 46.4219C29.4062 45.5781 29.9688 44.875 30.8125 44.6406L86.0312 29.7344C86.2188 29.6875 86.4062 29.7344 86.5469 29.9219C86.6406 30.0625 86.6875 30.2969 86.5938 30.4375L69.0156 59.2656C68.5469 60.0156 67.6562 60.3437 66.8125 60.0625L60.4375 58L45.1562 74.125C45.1094 74.1719 45.0156 74.2188 44.9219 74.2656C44.9219 74.2188 44.875 74.2188 44.875 74.2188ZM51.2031 53.9687H51.3438C51.5781 54.0625 51.7188 54.2969 51.625 54.5781L45.9531 71.9219L59.9687 57.1094C60.1094 56.9688 60.2969 56.9219 60.4375 56.9687L67.0938 59.125C67.5156 59.2656 67.9375 59.0781 68.1719 58.7031L85.0469 30.9062L31.0469 45.5781C30.5312 45.7187 30.3438 46.0938 30.3438 46.4688C30.3438 46.8438 30.4844 47.2188 31 47.4062L40.5625 50.5469C40.7031 50.5938 40.8438 50.7344 40.8906 50.9219L44.9688 71.9688L50.7344 54.3906C50.7812 54.1094 50.9688 53.9687 51.2031 53.9687Z" fill="#6A576D"/>
<path d="M50.4062 39.8594L62.0312 41.0781L63.0156 46.1406L67.7031 42.9062L74.9219 48.625L86.125 30.25L50.4062 39.8594Z" fill="#17153C"/>
<path d="M74.9219 49.0938C74.8281 49.0938 74.7344 49.0469 74.6406 49L67.7031 43.5156L63.2969 46.5156C63.1563 46.6094 63.0156 46.6094 62.875 46.5625C62.7344 46.5156 62.6406 46.375 62.5938 46.2344L61.6563 41.5L50.3594 40.3281C50.125 40.3281 49.9375 40.1406 49.9375 39.9062C49.9375 39.6719 50.0781 39.4844 50.2656 39.4375L85.9844 29.8281C86.1719 29.7813 86.3594 29.8281 86.5 30.0156C86.5938 30.1562 86.6406 30.3906 86.5469 30.5313L75.3438 48.8594C75.2969 48.9531 75.1563 49.0469 75.0156 49.0938H74.9219ZM67.7031 42.4375C67.7969 42.4375 67.8438 42.4375 67.8906 42.4844C67.9375 42.4844 67.9375 42.5312 67.9844 42.5312L74.7813 47.9219L85.0938 31L52.9844 39.6719L62.0781 40.6094C62.2656 40.6094 62.4531 40.7969 62.5 40.9844L63.3438 45.3437L67.4219 42.5312C67.5156 42.4844 67.6094 42.4375 67.7031 42.4375Z" fill="#17153C"/>
<path d="M44.875 73.75L60.3438 57.4375L51.2031 54.4375L44.875 73.75Z" fill="#111318"/>
<path d="M86.125 30.25L40.375 50.8281L44.875 73.75L60.3438 57.4375L51.2031 54.4375L86.125 30.25Z" fill="#111318"/>
<path d="M44.875 74.2187H44.7344C44.5469 74.1719 44.4531 74.0312 44.4062 73.8437L39.9531 50.9218C39.9062 50.6875 40 50.5 40.2344 50.4062L85.9844 29.8281C86.2188 29.7343 86.4531 29.8281 86.5938 30.0156C86.7344 30.25 86.6406 30.4843 86.4531 30.625L52.2344 54.2969L60.4844 57.0156C60.625 57.0625 60.7656 57.2031 60.8125 57.3437C60.8594 57.4844 60.8125 57.6719 60.7188 57.7656L45.25 74.0781C45.1094 74.1718 44.9688 74.2187 44.875 74.2187ZM40.9375 51.1093L45.1562 72.7656L59.5 57.625L51.0625 54.8593C50.875 54.8125 50.7812 54.6719 50.7344 54.4844C50.6875 54.2969 50.7813 54.1094 50.9219 54.0156L81.6719 32.7812L40.9375 51.1093Z" fill="#6A576D"/>
</g>
<defs>
<filter id="filter0_d_519_1807" x="25.8567" y="30.25" width="64.2683" height="51.5" filterUnits="userSpaceOnUse" color-interpolation-filters="sRGB">
<feFlood flood-opacity="0" result="BackgroundImageFix"/>
<feColorMatrix in="SourceAlpha" type="matrix" values="0 0 0 0 0 0 0 0 0 0 0 0 0 0 0 0 0 0 127 0" result="hardAlpha"/>
<feOffset dy="4"/>
<feGaussianBlur stdDeviation="2"/>
<feComposite in2="hardAlpha" operator="out"/>
<feColorMatrix type="matrix" values="0 0 0 0 0 0 0 0 0 0 0 0 0 0 0 0 0 0 0.25 0"/>
<feBlend mode="normal" in2="BackgroundImageFix" result="effect1_dropShadow_519_1807"/>
<feBlend mode="normal" in="SourceGraphic" in2="effect1_dropShadow_519_1807" result="shape"/>
</filter>
<clipPath id="clip0_519_1807">
<rect width="60" height="60" fill="white" transform="translate(28 22)"/>
</clipPath>
</defs>
</svg>
